<svg width="80" height="24" viewBox="0 0 80 24" fill="none" xmlns="http://www.w3.org/2000/svg">
<g clip-path="url(#clip0_67_8)">
<path d="M12.18 24C18.9068 24 24.36 18.6274 24.36 12C24.36 5.37258 18.9068 0 12.18 0C5.45317 0 0 5.37258 0 12C0 18.6274 5.45317 24 12.18 24Z" fill="#FF0000"/>
<path d="M12.18 24C18.9068 24 24.36 18.6274 24.36 12C24.36 5.37258 18.9068 0 12.18 0C5.45317 0 0 5.37258 0 12C0 18.6274 5.45317 24 12.18 24Z" fill="#FF0000"/>
<path d="M12.1801 19.2C16.2162 19.2 19.4881 15.9765 19.4881 12C19.4881 8.02355 16.2162 4.8 12.1801 4.8C8.14397 4.8 4.87207 8.02355 4.87207 12C4.87207 15.9765 8.14397 19.2 12.1801 19.2Z" fill="#FF0000" stroke="white" stroke-width="1.2"/>
<path d="M9.7439 15.545L16.0709 12.001L9.7439 8.455V15.545ZM37.4329 9.642C36.8539 12.495 36.4139 15.978 36.1829 17.416H36.0199C35.8329 15.934 35.3929 12.474 34.7929 9.666L33.3099 2.677H28.7899V21.527H31.5929V5.987L31.8699 7.438L34.7199 21.524H37.5239L40.3269 7.438L40.6269 5.979V21.526H43.4309V2.676H38.8679L37.4329 9.642ZM51.0099 18.696C50.7539 19.213 50.1999 19.572 49.6419 19.572C48.9939 19.572 48.7379 19.078 48.7379 17.866V7.754H45.5399V18.044C45.5399 20.584 46.3959 21.75 48.2979 21.75C49.5939 21.75 50.6359 21.188 51.3559 19.841H51.4259L51.7029 21.525H54.2049V7.755H51.0069V18.695L51.0099 18.696ZM60.3919 13.19C59.3489 12.448 58.7009 11.954 58.7009 10.876C58.7009 10.113 59.0709 9.686 59.9509 9.686C60.8559 9.686 61.1569 10.291 61.1779 12.36L63.8669 12.249C64.0749 8.903 62.9389 7.509 59.9969 7.509C57.2639 7.509 55.9189 8.699 55.9189 11.147C55.9189 13.371 57.0319 14.382 58.8389 15.709C60.3919 16.878 61.2959 17.529 61.2959 18.473C61.2959 19.193 60.8319 19.686 60.0209 19.686C59.0709 19.686 58.5139 18.809 58.6559 17.281L55.9459 17.325C55.5269 20.177 56.7119 21.84 59.8609 21.84C62.6189 21.84 64.0559 20.604 64.0559 18.134C64.0529 15.887 62.8959 14.987 60.3919 13.19ZM68.8719 7.754H65.8129V21.524H68.8729V7.755L68.8719 7.754ZM67.3649 2.316C66.1849 2.316 65.6269 2.743 65.6269 4.227C65.6269 5.755 66.1809 6.136 67.3659 6.136C68.5709 6.136 69.1039 5.753 69.1039 4.227C69.1039 2.813 68.5709 2.316 67.3649 2.316ZM79.1579 16.56L76.3549 16.425C76.3549 18.851 76.0779 19.637 75.1289 19.637C74.1789 19.637 74.0159 18.76 74.0159 15.907V13.237C74.0159 10.472 74.2029 9.598 75.1529 9.598C76.0329 9.598 76.2649 10.428 76.2649 12.991L79.0429 12.813C79.2299 10.679 78.9499 9.218 78.0939 8.388C77.4669 7.78 76.5179 7.491 75.1979 7.491C72.0939 7.491 70.8189 9.109 70.8189 13.645V15.577C70.8189 20.25 71.9069 21.755 75.0829 21.755C76.4269 21.755 77.3529 21.485 77.9789 20.901C78.8809 20.087 79.2269 18.696 79.1579 16.56Z" fill="white"/>
</g>
<defs>
<clipPath id="clip0_67_8">
<rect width="80" height="24" fill="white"/>
</clipPath>
</defs>
</svg>
